<?xml version="1.0" encoding="utf-8"?>
<!-- Generator: Adobe Illustrator 15.0.0, SVG Export Plug-In . SVG Version: 6.00 Build 0)  -->
<!DOCTYPE svg PUBLIC "-//W3C//DTD SVG 1.1//EN" "http://www.w3.org/Graphics/SVG/1.1/DTD/svg11.dtd">
<svg version="1.1" id="Layer_1" xmlns="http://www.w3.org/2000/svg" xmlns:xlink="http://www.w3.org/1999/xlink" x="0px" y="0px"
	 width="25px" height="25px" viewBox="0 0 25 25" enable-background="new 0 0 25 25" xml:space="preserve">
<path fill="#FFFFFF" d="M0,21.874c0,0.808,0.651,1.458,1.458,1.458c0.467,0,0.752-0.169,1.021-0.438l4.529-4.526
	c1.706,1.278,3.818,2.048,6.116,2.048c5.639,0,10.209-4.568,10.209-10.208C23.334,4.569,18.764,0,13.125,0
	C7.487,0,2.917,4.57,2.917,10.208c0,2.299,0.77,4.41,2.048,6.119l-4.526,4.526C0.08,21.212,0.001,21.557,0,21.874z M13.125,17.5
	c-4.027,0-7.292-3.264-7.292-7.292c0-4.028,3.265-7.292,7.292-7.292s7.292,3.264,7.292,7.292C20.417,14.234,17.152,17.5,13.125,17.5
	z"/>
</svg>
