<?xml version="1.0" encoding="utf-8"?>
<!-- Generator: Adobe Illustrator 15.0.0, SVG Export Plug-In . SVG Version: 6.00 Build 0)  -->
<!DOCTYPE svg PUBLIC "-//W3C//DTD SVG 1.1//EN" "http://www.w3.org/Graphics/SVG/1.1/DTD/svg11.dtd">
<svg version="1.1" id="Layer_1" xmlns="http://www.w3.org/2000/svg" xmlns:xlink="http://www.w3.org/1999/xlink" x="0px" y="0px"
	 width="100px" height="100px" viewBox="0 0 100 100" enable-background="new 0 0 100 100" xml:space="preserve">
<g>
	<g>
		<path fill="#231F20" d="M91.297,47.774c-0.147,0-0.296-0.057-0.409-0.169c-0.227-0.226-0.227-0.593,0-0.819l0.993-0.994
			c0.226-0.225,0.592-0.226,0.818,0s0.227,0.593,0,0.819l-0.993,0.994C91.593,47.718,91.445,47.774,91.297,47.774z"/>
	</g>
	<g>
		<path fill="#231F20" d="M88.186,50.885c-0.148,0-0.297-0.056-0.409-0.17c-0.227-0.225-0.227-0.592,0-0.818l0.993-0.994
			c0.227-0.227,0.593-0.225,0.819,0c0.227,0.227,0.227,0.593,0,0.819l-0.994,0.993C88.481,50.83,88.333,50.885,88.186,50.885z"/>
	</g>
	<g>
		<path fill="#231F20" d="M92.29,50.885c-0.148,0-0.296-0.056-0.409-0.17l-0.993-0.993c-0.227-0.227-0.227-0.593,0-0.819
			c0.226-0.227,0.593-0.225,0.818,0l0.993,0.994c0.227,0.226,0.227,0.593,0,0.818C92.586,50.83,92.438,50.885,92.29,50.885z"/>
	</g>
	<g>
		<path fill="#231F20" d="M89.18,47.774c-0.148,0-0.297-0.057-0.41-0.169l-0.993-0.994c-0.227-0.226-0.227-0.593,0-0.819
			c0.226-0.226,0.593-0.226,0.818,0l0.994,0.994c0.227,0.226,0.227,0.593,0,0.819C89.476,47.718,89.328,47.774,89.18,47.774z"/>
	</g>
	<g>
		<path fill="#231F20" d="M61,11.088c-0.148,0-0.297-0.057-0.409-0.17c-0.227-0.225-0.227-0.592,0-0.818l0.993-0.994
			c0.227-0.226,0.594-0.226,0.819,0c0.227,0.226,0.227,0.593,0,0.818l-0.993,0.994C61.297,11.032,61.148,11.088,61,11.088z"/>
	</g>
	<g>
		<path fill="#231F20" d="M57.89,14.2c-0.147,0-0.296-0.057-0.409-0.169c-0.227-0.226-0.227-0.593,0-0.819l0.992-0.994
			c0.227-0.226,0.592-0.227,0.819-0.001c0.226,0.227,0.226,0.594,0,0.82l-0.993,0.994C58.186,14.143,58.038,14.2,57.89,14.2z"/>
	</g>
	<g>
		<path fill="#231F20" d="M61.994,14.2c-0.148,0-0.297-0.057-0.41-0.169l-0.993-0.994c-0.227-0.226-0.227-0.593,0-0.819
			c0.226-0.227,0.593-0.227,0.819,0l0.993,0.994c0.227,0.227,0.227,0.593,0,0.819C62.291,14.143,62.143,14.2,61.994,14.2z"/>
	</g>
	<g>
		<path fill="#231F20" d="M58.883,11.088c-0.148,0-0.297-0.057-0.41-0.17L57.48,9.925c-0.227-0.226-0.227-0.593,0-0.819
			c0.227-0.226,0.593-0.226,0.818,0l0.993,0.994c0.226,0.226,0.226,0.593,0,0.819C59.179,11.032,59.03,11.088,58.883,11.088z"/>
	</g>
	<g>
		<circle fill="#FFD05B" cx="62.475" cy="21.675" r="1.475"/>
	</g>
	<g>
		<circle fill="#FF7058" cx="51.441" cy="4.618" r="1.475"/>
	</g>
	<g>
		<circle fill="#CED5E0" cx="96.011" cy="38.364" r="2.181"/>
	</g>
	<g>
		<circle fill="#FF7058" cx="93.683" cy="65.324" r="1.448"/>
	</g>
	<g>
		<circle fill="#FFD05B" cx="16.991" cy="92.567" r="1.448"/>
	</g>
	<g>
		<rect x="27.346" fill="#231F20" width="2.233" height="1.158"/>
	</g>
	<g>
		<polygon fill="#FFFFFF" points="39.329,0.579 39.329,13.959 52.709,13.959 		"/>
		<path fill="#231F20" d="M52.709,14.538h-13.38c-0.32,0-0.579-0.258-0.579-0.579V0.579c0-0.234,0.141-0.446,0.357-0.535
			c0.216-0.09,0.465-0.04,0.631,0.125l13.38,13.38c0.166,0.166,0.215,0.415,0.126,0.632C53.154,14.397,52.943,14.538,52.709,14.538z
			 M39.908,13.38h11.403L39.908,1.977V13.38z"/>
	</g>
	<g>
		<polygon fill="#FFD05B" points="40.873,12.415 40.873,4.308 48.98,12.415 		"/>
	</g>
	<path fill="#FFFFFF" d="M74.012,40.654v58.767h-51.13V40.74c0-1.465-0.594-2.799-1.559-3.763s-2.299-1.559-3.763-1.559h51.216
		C71.668,35.418,74.012,37.762,74.012,40.654z"/>
	<g>
		<path fill="#FFD05B" d="M12.645,63.047c0.736-1.113,1.13-2.419,1.13-3.786V40.739c0-1.009,0.393-1.957,1.105-2.67
			c0.713-0.713,1.665-1.106,2.68-1.106c1.009,0,1.958,0.393,2.671,1.106c0.713,0.713,1.105,1.662,1.105,2.67v22.308H12.645z"/>
	</g>
	<g>
		<g>
			<path fill="#231F20" d="M87.305,29.268h-3.408c-0.299,0-0.549-0.229-0.576-0.526l-0.202-2.182
				c-1.507-0.311-2.915-0.894-4.197-1.736l-1.683,1.399c-0.229,0.19-0.567,0.176-0.78-0.037l-2.41-2.409
				c-0.212-0.211-0.227-0.549-0.036-0.78l1.398-1.684c-0.842-1.282-1.425-2.69-1.736-4.196l-2.182-0.202
				c-0.298-0.028-0.525-0.277-0.525-0.576V12.93c0-0.299,0.228-0.549,0.525-0.576l2.182-0.203c0.312-1.506,0.895-2.915,1.736-4.196
				l-1.398-1.684c-0.19-0.23-0.176-0.568,0.036-0.78l2.41-2.41c0.213-0.212,0.551-0.226,0.78-0.036l1.684,1.398
				c1.281-0.843,2.689-1.425,4.196-1.736l0.202-2.182C83.348,0.228,83.598,0,83.896,0h3.408c0.3,0,0.549,0.228,0.577,0.525
				l0.202,2.182c1.506,0.312,2.913,0.894,4.196,1.736l1.684-1.398c0.231-0.189,0.569-0.175,0.78,0.036l2.409,2.41
				c0.212,0.212,0.227,0.55,0.036,0.78l-1.398,1.684c0.843,1.281,1.425,2.69,1.736,4.196l2.182,0.203
				c0.298,0.028,0.525,0.278,0.525,0.576v3.409c0,0.299-0.228,0.548-0.525,0.576l-2.182,0.202c-0.311,1.506-0.894,2.915-1.736,4.196
				l1.398,1.684c0.19,0.231,0.176,0.568-0.036,0.78l-2.41,2.409c-0.211,0.213-0.549,0.227-0.779,0.037l-1.684-1.399
				c-1.283,0.843-2.69,1.425-4.196,1.737l-0.202,2.181C87.854,29.04,87.604,29.268,87.305,29.268z M84.425,28.11h2.352l0.194-2.092
				c0.024-0.261,0.222-0.474,0.48-0.518c1.646-0.279,3.169-0.909,4.527-1.873c0.215-0.152,0.504-0.141,0.706,0.026l1.613,1.341
				l1.663-1.664l-1.34-1.614c-0.168-0.202-0.179-0.491-0.026-0.705c0.964-1.357,1.594-2.881,1.873-4.527
				c0.044-0.26,0.256-0.457,0.518-0.48l2.091-0.195v-2.352l-2.091-0.194c-0.262-0.024-0.474-0.221-0.518-0.48
				c-0.279-1.647-0.909-3.17-1.873-4.527c-0.152-0.214-0.142-0.504,0.026-0.705l1.34-1.615l-1.663-1.663l-1.613,1.339
				c-0.201,0.167-0.49,0.18-0.706,0.027c-1.357-0.965-2.881-1.595-4.527-1.873c-0.259-0.044-0.456-0.256-0.48-0.518l-0.194-2.092
				h-2.352L84.23,3.25c-0.023,0.261-0.222,0.474-0.479,0.518c-1.647,0.278-3.171,0.909-4.527,1.873
				c-0.214,0.152-0.503,0.142-0.706-0.027l-1.613-1.34L75.24,5.937l1.341,1.615c0.167,0.201,0.179,0.491,0.026,0.705
				c-0.964,1.356-1.595,2.88-1.874,4.527c-0.043,0.259-0.256,0.456-0.517,0.48l-2.092,0.194v2.352l2.092,0.195
				c0.262,0.024,0.474,0.221,0.517,0.48c0.279,1.646,0.91,3.169,1.874,4.527c0.152,0.214,0.141,0.503-0.026,0.705l-1.341,1.614
				l1.664,1.664l1.613-1.341c0.201-0.167,0.491-0.179,0.705-0.026c1.357,0.964,2.881,1.594,4.528,1.873
				c0.258,0.044,0.456,0.256,0.479,0.518L84.425,28.11z"/>
		</g>
		<g>
			<path fill="#231F20" d="M85.531,24.017c-0.276-0.002-0.55-0.017-0.82-0.042l0.109-1.153c0.236,0.022,0.477,0.034,0.72,0.036
				L85.531,24.017z M87.17,23.887l-0.193-1.143c0.238-0.039,0.474-0.09,0.704-0.15l0.293,1.121
				C87.71,23.783,87.441,23.84,87.17,23.887z M83.095,23.678c-0.267-0.073-0.528-0.159-0.784-0.255l0.409-1.084
				c0.223,0.084,0.451,0.159,0.684,0.223L83.095,23.678z M89.522,23.161l-0.485-1.052c0.219-0.101,0.433-0.211,0.64-0.331
				l0.576,1.006C90.016,22.919,89.772,23.045,89.522,23.161z M80.828,22.714c-0.236-0.14-0.467-0.291-0.688-0.45l0.675-0.94
				c0.195,0.14,0.397,0.271,0.604,0.394L80.828,22.714z M91.604,21.846l-0.743-0.888c0.184-0.155,0.362-0.317,0.534-0.486
				l0.815,0.821C92.017,21.486,91.813,21.671,91.604,21.846z M78.893,21.195c-0.191-0.196-0.375-0.401-0.549-0.612l0.896-0.735
				c0.152,0.186,0.312,0.366,0.481,0.537L78.893,21.195z M93.271,20.038l-0.946-0.666c0.138-0.197,0.268-0.399,0.39-0.608
				l1.001,0.583C93.578,19.583,93.43,19.814,93.271,20.038z M77.417,19.226c-0.135-0.239-0.259-0.483-0.372-0.735l1.058-0.475
				c0.098,0.22,0.206,0.434,0.323,0.641L77.417,19.226z M94.414,17.858l-1.087-0.399c0.082-0.224,0.154-0.453,0.217-0.686l1.119,0.3
				C94.592,17.34,94.509,17.602,94.414,17.858z M76.504,16.939c-0.066-0.265-0.122-0.533-0.165-0.806l1.143-0.183
				c0.039,0.238,0.087,0.474,0.146,0.705L76.504,16.939z M94.948,15.455l-1.153-0.099c0.02-0.238,0.03-0.479,0.03-0.722h1.158
				C94.983,14.91,94.972,15.185,94.948,15.455z M77.377,14.512l-1.158-0.017c0.004-0.276,0.021-0.549,0.048-0.819l1.151,0.116
				C77.395,14.029,77.381,14.269,77.377,14.512z M93.738,13.437c-0.034-0.238-0.079-0.475-0.134-0.708l1.127-0.266
				c0.062,0.266,0.114,0.535,0.153,0.809L93.738,13.437z M77.689,12.378l-1.114-0.317c0.076-0.265,0.163-0.526,0.26-0.781
				l1.083,0.413C77.832,11.917,77.756,12.145,77.689,12.378z M93.149,11.364c-0.097-0.221-0.202-0.438-0.315-0.648l1.018-0.552
				c0.131,0.241,0.251,0.487,0.36,0.74L93.149,11.364z M78.549,10.399l-0.992-0.596c0.141-0.235,0.292-0.464,0.453-0.686l0.938,0.68
				C78.807,9.992,78.673,10.192,78.549,10.399z M92.039,9.515c-0.15-0.188-0.308-0.37-0.474-0.544l0.84-0.798
				c0.188,0.199,0.369,0.406,0.54,0.621L92.039,9.515z M79.894,8.712l-0.803-0.834c0.197-0.19,0.402-0.371,0.615-0.543l0.729,0.899
				C80.249,8.386,80.067,8.545,79.894,8.712z M90.484,8.016c-0.192-0.144-0.392-0.277-0.598-0.403l0.604-0.988
				c0.234,0.143,0.463,0.298,0.683,0.46L90.484,8.016z M81.629,7.43l-0.56-1.014c0.239-0.132,0.485-0.254,0.735-0.366l0.471,1.059
				C82.056,7.207,81.84,7.314,81.629,7.43z M88.596,6.972c-0.223-0.088-0.449-0.166-0.681-0.233l0.325-1.112
				c0.265,0.079,0.525,0.167,0.779,0.266L88.596,6.972z M83.639,6.645l-0.276-1.126c0.265-0.064,0.533-0.118,0.806-0.16l0.178,1.145
				C84.106,6.541,83.87,6.588,83.639,6.645z M86.503,6.458c-0.236-0.025-0.478-0.042-0.72-0.047l0.025-1.158
				c0.276,0.006,0.55,0.024,0.819,0.054L86.503,6.458z"/>
		</g>
		<g>
			<circle fill="#FF7058" cx="85.601" cy="14.634" r="6.989"/>
		</g>
		<g>
			<circle fill="#FFFFFF" cx="85.601" cy="14.634" r="3.493"/>
			<path fill="#231F20" d="M85.602,18.706c-2.246,0-4.073-1.826-4.073-4.072c0-2.246,1.827-4.073,4.073-4.073
				c2.245,0,4.071,1.827,4.071,4.073C89.673,16.88,87.847,18.706,85.602,18.706z M85.602,11.719c-1.607,0-2.915,1.308-2.915,2.915
				c0,1.607,1.308,2.914,2.915,2.914c1.606,0,2.913-1.307,2.913-2.914C88.515,13.027,87.208,11.719,85.602,11.719z"/>
		</g>
	</g>
	<g>
		<g>
			<rect x="6.653" y="17.635" fill="#231F20" width="11.978" height="1.158"/>
		</g>
		<g>
			<rect x="6.653" y="21.439" fill="#231F20" width="11.978" height="1.158"/>
		</g>
		<g>
			<rect x="6.653" y="25.244" fill="#231F20" width="11.978" height="1.158"/>
		</g>
		<g>
			<rect x="6.653" y="29.049" fill="#231F20" width="11.978" height="1.158"/>
		</g>
		<g>
			<rect x="21.156" y="17.635" fill="#231F20" width="11.977" height="1.158"/>
		</g>
		<g>
			<rect x="21.156" y="21.439" fill="#231F20" width="11.977" height="1.158"/>
		</g>
		<g>
			<rect x="21.156" y="25.244" fill="#231F20" width="11.977" height="1.158"/>
		</g>
		<g>
			<rect x="21.156" y="29.049" fill="#231F20" width="11.977" height="1.158"/>
		</g>
		<g>
			<rect x="35.658" y="17.635" fill="#231F20" width="11.977" height="1.158"/>
		</g>
		<g>
			<rect x="35.658" y="21.439" fill="#231F20" width="11.977" height="1.158"/>
		</g>
		<g>
			<rect x="35.658" y="25.244" fill="#231F20" width="11.977" height="1.158"/>
		</g>
	</g>
	<g>
		<g>
			<rect x="27.865" y="69.157" fill="#231F20" width="11.978" height="1.158"/>
		</g>
		<g>
			<rect x="27.865" y="73.662" fill="#231F20" width="11.978" height="1.158"/>
		</g>
		<g>
			<rect x="27.865" y="78.167" fill="#231F20" width="11.978" height="1.158"/>
		</g>
		<g>
			<rect x="27.865" y="82.671" fill="#231F20" width="11.978" height="1.159"/>
		</g>
		<g>
			<rect x="42.367" y="69.157" fill="#231F20" width="11.977" height="1.158"/>
		</g>
		<g>
			<rect x="42.367" y="73.662" fill="#231F20" width="11.977" height="1.158"/>
		</g>
		<g>
			<rect x="42.367" y="78.167" fill="#231F20" width="11.977" height="1.158"/>
		</g>
		<g>
			<rect x="42.367" y="82.671" fill="#231F20" width="11.977" height="1.159"/>
		</g>
		<g>
			<rect x="56.869" y="69.157" fill="#231F20" width="11.978" height="1.158"/>
		</g>
		<g>
			<rect x="56.869" y="73.662" fill="#231F20" width="11.978" height="1.158"/>
		</g>
		<g>
			<rect x="56.869" y="78.167" fill="#231F20" width="11.978" height="1.158"/>
		</g>
	</g>
	<g>
		<circle fill="#84DBFF" cx="8.695" cy="77.027" r="5.004"/>
	</g>
	<path fill="#231F20" d="M8.695,69.498c-4.151,0-7.529,3.378-7.529,7.529s3.377,7.528,7.529,7.528s7.529-3.377,7.529-7.528
		S12.846,69.498,8.695,69.498z M15.036,76.448h-3.161c-0.067-2.086-0.495-4.158-1.253-5.492
		C13.018,71.719,14.802,73.862,15.036,76.448z M8.695,83.397c-0.79,0-1.916-2.238-2.028-5.791h4.056
		C10.61,81.159,9.484,83.397,8.695,83.397z M6.667,76.448c0.112-3.554,1.238-5.792,2.028-5.792s1.916,2.238,2.028,5.792H6.667z
		 M6.768,70.956c-0.758,1.334-1.186,3.406-1.253,5.492H2.354C2.588,73.862,4.372,71.719,6.768,70.956z M2.354,77.606h3.154
		c0.067,2.077,0.494,4.151,1.247,5.486C4.365,82.327,2.587,80.187,2.354,77.606z M10.636,83.093c0.753-1.335,1.18-3.409,1.247-5.486
		h3.154C14.802,80.187,13.025,82.327,10.636,83.093z"/>
	<path fill="#FFFFFF" d="M52.934,93.86h2.29v-5.479h-2.29c-1.513,0-2.739,1.226-2.739,2.739l0,0
		C50.194,92.633,51.421,93.86,52.934,93.86z"/>
	<rect x="55.224" y="88.381" fill="#FFFFFF" width="32.645" height="5.479"/>
	<polygon fill="#FFFFFF" points="87.868,88.381 96.812,91.12 87.868,93.86 	"/>
	<line fill="#FFFFFF" x1="74.891" y1="59.236" x2="78.478" y2="62.823"/>
	<circle fill="#84DBFF" cx="62.337" cy="46.684" r="17.753"/>
	<circle fill="#FFFFFF" cx="62.337" cy="46.684" r="13.982"/>
	<path fill="#231F20" d="M62.337,53.335c-0.319,0-0.579-0.249-0.579-0.568c0-2.344,1.227-4.507,3.279-5.808
		c1.543-0.977,2.441-2.718,2.346-4.544c-0.133-2.543-2.23-4.639-4.771-4.773c-1.396-0.071-2.735,0.417-3.752,1.38
		c-1.016,0.964-1.574,2.266-1.574,3.666c0,0.32-0.26,0.579-0.58,0.579c-0.319,0-0.578-0.259-0.578-0.579
		c0-1.721,0.688-3.321,1.936-4.506s2.889-1.79,4.609-1.697c3.126,0.165,5.703,2.742,5.868,5.869
		c0.117,2.243-0.987,4.383-2.883,5.583c-1.716,1.087-2.741,2.885-2.741,4.809C62.916,53.065,62.656,53.335,62.337,53.335z"/>
	<path fill="#231F20" d="M62.337,56.479c-0.319,0-0.579-0.259-0.579-0.578v-0.433c0-0.319,0.26-0.579,0.579-0.579
		s0.579,0.26,0.579,0.579v0.433C62.916,56.221,62.656,56.479,62.337,56.479z"/>
	<path fill="#FFFFFF" d="M78.477,62.823L78.477,62.823c-1.452,1.452-1.452,3.806,0,5.259l10.938,10.937
		c1.451,1.452,3.806,1.452,5.258,0l0,0c1.452-1.452,1.452-3.806,0-5.259L83.734,62.823C82.283,61.372,79.929,61.372,78.477,62.823z"
		/>
	
		<rect x="80.372" y="67.203" transform="matrix(0.7071 0.7071 -0.7071 0.7071 75.506 -40.4448)" fill="#E6E9EE" width="12.405" height="7.436"/>
	<g>
		<path fill="#231F20" d="M96.982,90.566l-8.944-2.74c-0.021-0.007-0.043,0-0.064-0.004c-0.035-0.007-0.068-0.021-0.104-0.021
			H74.591V60.295c0.095-0.085,0.192-0.168,0.284-0.255l2.824,2.824c-1.278,1.683-1.167,4.092,0.368,5.627l10.937,10.937
			c1.676,1.676,4.402,1.676,6.078,0c1.676-1.675,1.675-4.401-0.001-6.077l-9.854-9.854l-1.083-1.083
			c-1.535-1.534-3.942-1.646-5.626-0.368l-2.825-2.824c3.083-3.281,4.976-7.692,4.976-12.538c0-10.109-8.223-18.333-18.332-18.333
			c-3.29,0-6.378,0.878-9.049,2.403V13.959c0-0.159-0.065-0.304-0.17-0.409l-13.38-13.38C39.633,0.065,39.489,0,39.329,0h-7.414
			v1.158h6.835v12.801c0,0.321,0.259,0.579,0.579,0.579h12.8v16.934c-1.404,0.946-2.674,2.079-3.767,3.367H17.56
			c-1.582,0-3.066,0.614-4.181,1.728c-1.115,1.114-1.729,2.596-1.729,4.172v18.522c0,1.272-0.493,2.467-1.388,3.362
			c-0.896,0.896-2.086,1.388-3.354,1.388c-2.62,0-4.751-2.13-4.751-4.75V1.158H24.91V0H1.579C1.259,0,1,0.259,1,0.579v58.682
			c0,3.259,2.651,5.909,5.909,5.909h15.394v34.251c0,0.319,0.259,0.579,0.579,0.579h51.13c0.32,0,0.579-0.26,0.579-0.579v-4.982
			h13.278c0.057,0,0.113-0.009,0.169-0.025l8.944-2.739c0.243-0.074,0.409-0.3,0.409-0.555
			C97.392,90.865,97.226,90.641,96.982,90.566z M94.262,74.17c1.225,1.224,1.225,3.216,0.001,4.439c-1.225,1.224-3.216,1.224-4.44,0
			l-0.672-0.674l4.438-4.439L94.262,74.17z M84.817,64.726l7.952,7.952l-4.439,4.438l-7.952-7.951L84.817,64.726z M78.887,63.233
			c1.223-1.225,3.216-1.224,4.438,0l0.673,0.673l-4.438,4.439l-0.673-0.674C77.663,66.448,77.662,64.457,78.887,63.233z
			 M39.908,13.38V1.977L51.311,13.38H39.908z M62.337,29.509c9.47,0,17.174,7.704,17.174,17.174c0,9.47-7.704,17.174-17.174,17.174
			s-17.173-7.704-17.173-17.174C45.164,37.213,52.867,29.509,62.337,29.509z M22.303,64.011h-11.88
			c0.231-0.172,0.452-0.361,0.659-0.568c1.114-1.114,1.728-2.6,1.728-4.182V40.739c0-1.266,0.493-2.458,1.389-3.353
			c0.896-0.896,2.09-1.389,3.362-1.389c1.267,0,2.458,0.493,3.354,1.389c0.896,0.895,1.389,2.086,1.389,3.353V64.011z
			 M73.433,98.842H23.461V40.739c0-1.576-0.614-3.058-1.729-4.172c-0.208-0.208-0.428-0.397-0.659-0.57h26.383
			c-2.168,3.011-3.451,6.701-3.451,10.687c0,10.108,8.223,18.332,18.332,18.332c4.169,0,8.014-1.404,11.096-3.758v26.543H52.934
			c-1.83,0-3.318,1.489-3.318,3.318c0,1.831,1.488,3.319,3.318,3.319h20.499V98.842z M54.645,88.959v4.321h-1.711
			c-1.191,0-2.16-0.969-2.16-2.161c0-1.191,0.968-2.16,2.16-2.16H54.645z M87.29,93.28H55.803v-1.581H87.29V93.28z M87.29,90.54
			H55.803v-1.581H87.29V90.54z M88.448,93.076v-3.913l6.387,1.956L88.448,93.076z"/>
		<path fill="#231F20" d="M62.337,61.244c8.03,0,14.562-6.532,14.562-14.561c0-8.029-6.531-14.561-14.562-14.561
			c-8.028,0-14.561,6.532-14.561,14.561C47.776,54.712,54.309,61.244,62.337,61.244z M62.337,33.281
			c7.391,0,13.403,6.012,13.403,13.403c0,7.39-6.013,13.402-13.403,13.402c-7.39,0-13.402-6.013-13.402-13.402
			C48.935,39.293,54.947,33.281,62.337,33.281z"/>
	</g>
</g>
</svg>
